<mxfile host="app.diagrams.net" modified="2020-10-04T23:22:19.649Z" agent="5.0 (Windows NT 10.0; Win64; x64) AppleWebKit/537.36 (KHTML, like Gecko) Chrome/85.0.4183.121 Safari/537.36" etag="Ya3PbJ2tYJkV8WqoLXqX" version="13.7.7" type="github">
  <diagram id="C5RBs43oDa-KdzZeNtuy" name="Page-1">
    <mxGraphModel dx="1038" dy="548" grid="1" gridSize="10" guides="1" tooltips="1" connect="1" arrows="1" fold="1" page="1" pageScale="1" pageWidth="827" pageHeight="1169" math="0" shadow="0">
      <root>
        <mxCell id="WIyWlLk6GJQsqaUBKTNV-0" />
        <mxCell id="WIyWlLk6GJQsqaUBKTNV-1" parent="WIyWlLk6GJQsqaUBKTNV-0" />
        <mxCell id="LgFOgcLopF_vBFVp37Ev-20" style="edgeStyle=orthogonalEdgeStyle;rounded=0;orthogonalLoop=1;jettySize=auto;html=1;entryX=0.25;entryY=0;entryDx=0;entryDy=0;" edge="1" parent="WIyWlLk6GJQsqaUBKTNV-1" source="LgFOgcLopF_vBFVp37Ev-3" target="LgFOgcLopF_vBFVp37Ev-19">
          <mxGeometry relative="1" as="geometry">
            <Array as="points">
              <mxPoint x="150" y="160" />
              <mxPoint x="465" y="160" />
            </Array>
          </mxGeometry>
        </mxCell>
        <mxCell id="LgFOgcLopF_vBFVp37Ev-3" value="File" style="strokeWidth=2;html=1;shape=mxgraph.flowchart.document2;whiteSpace=wrap;size=0.25;fontFamily=Helvetica;fontSize=12;fontColor=#000000;align=center;strokeColor=#000000;fillColor=#ffffff;" vertex="1" parent="WIyWlLk6GJQsqaUBKTNV-1">
          <mxGeometry x="90" y="60" width="120" height="60" as="geometry" />
        </mxCell>
        <mxCell id="LgFOgcLopF_vBFVp37Ev-21" style="edgeStyle=orthogonalEdgeStyle;rounded=0;orthogonalLoop=1;jettySize=auto;html=1;" edge="1" parent="WIyWlLk6GJQsqaUBKTNV-1" source="LgFOgcLopF_vBFVp37Ev-4" target="LgFOgcLopF_vBFVp37Ev-19">
          <mxGeometry relative="1" as="geometry">
            <Array as="points">
              <mxPoint x="304" y="160" />
              <mxPoint x="500" y="160" />
            </Array>
          </mxGeometry>
        </mxCell>
        <mxCell id="LgFOgcLopF_vBFVp37Ev-4" value="Enter Text" style="html=1;strokeWidth=2;shape=manualInput;whiteSpace=wrap;rounded=1;size=26;arcSize=11;fontFamily=Helvetica;fontSize=12;fontColor=#000000;align=center;strokeColor=#000000;fillColor=#ffffff;" vertex="1" parent="WIyWlLk6GJQsqaUBKTNV-1">
          <mxGeometry x="244" y="60" width="120" height="60" as="geometry" />
        </mxCell>
        <mxCell id="LgFOgcLopF_vBFVp37Ev-6" value="EBCDIC Conversion" style="rounded=0;whiteSpace=wrap;html=1;" vertex="1" parent="WIyWlLk6GJQsqaUBKTNV-1">
          <mxGeometry x="430" y="320" width="140" height="60" as="geometry" />
        </mxCell>
        <mxCell id="LgFOgcLopF_vBFVp37Ev-7" value="ASCII" style="strokeWidth=2;html=1;shape=mxgraph.flowchart.annotation_1;align=left;pointerEvents=1;" vertex="1" parent="WIyWlLk6GJQsqaUBKTNV-1">
          <mxGeometry x="30" y="40" width="50" height="100" as="geometry" />
        </mxCell>
        <mxCell id="LgFOgcLopF_vBFVp37Ev-8" value="Paste Text" style="html=1;strokeWidth=2;shape=manualInput;whiteSpace=wrap;rounded=1;size=26;arcSize=11;" vertex="1" parent="WIyWlLk6GJQsqaUBKTNV-1">
          <mxGeometry x="410" y="60" width="100" height="60" as="geometry" />
        </mxCell>
        <mxCell id="LgFOgcLopF_vBFVp37Ev-9" value="EBCDIC" style="strokeWidth=2;html=1;shape=mxgraph.flowchart.annotation_1;align=left;pointerEvents=1;" vertex="1" parent="WIyWlLk6GJQsqaUBKTNV-1">
          <mxGeometry x="570" y="40" width="50" height="100" as="geometry" />
        </mxCell>
        <mxCell id="LgFOgcLopF_vBFVp37Ev-23" style="edgeStyle=orthogonalEdgeStyle;rounded=0;orthogonalLoop=1;jettySize=auto;html=1;entryX=0.697;entryY=-0.003;entryDx=0;entryDy=0;entryPerimeter=0;" edge="1" parent="WIyWlLk6GJQsqaUBKTNV-1" source="LgFOgcLopF_vBFVp37Ev-10" target="LgFOgcLopF_vBFVp37Ev-19">
          <mxGeometry relative="1" as="geometry">
            <Array as="points">
              <mxPoint x="700" y="160" />
              <mxPoint x="528" y="160" />
            </Array>
          </mxGeometry>
        </mxCell>
        <mxCell id="LgFOgcLopF_vBFVp37Ev-10" value="Enter Text" style="html=1;strokeWidth=2;shape=manualInput;whiteSpace=wrap;rounded=1;size=26;arcSize=11;fontFamily=Helvetica;fontSize=12;fontColor=#000000;align=center;strokeColor=#000000;fillColor=#ffffff;" vertex="1" parent="WIyWlLk6GJQsqaUBKTNV-1">
          <mxGeometry x="640" y="60" width="120" height="60" as="geometry" />
        </mxCell>
        <mxCell id="LgFOgcLopF_vBFVp37Ev-24" style="edgeStyle=orthogonalEdgeStyle;rounded=0;orthogonalLoop=1;jettySize=auto;html=1;entryX=0.869;entryY=-0.003;entryDx=0;entryDy=0;entryPerimeter=0;" edge="1" parent="WIyWlLk6GJQsqaUBKTNV-1" source="LgFOgcLopF_vBFVp37Ev-11" target="LgFOgcLopF_vBFVp37Ev-19">
          <mxGeometry relative="1" as="geometry">
            <Array as="points">
              <mxPoint x="840" y="160" />
              <mxPoint x="552" y="160" />
            </Array>
          </mxGeometry>
        </mxCell>
        <mxCell id="LgFOgcLopF_vBFVp37Ev-11" value="Paste Text" style="html=1;strokeWidth=2;shape=manualInput;whiteSpace=wrap;rounded=1;size=26;arcSize=11;" vertex="1" parent="WIyWlLk6GJQsqaUBKTNV-1">
          <mxGeometry x="790" y="60" width="100" height="60" as="geometry" />
        </mxCell>
        <mxCell id="LgFOgcLopF_vBFVp37Ev-25" style="edgeStyle=orthogonalEdgeStyle;rounded=0;orthogonalLoop=1;jettySize=auto;html=1;entryX=0.5;entryY=0;entryDx=0;entryDy=0;" edge="1" parent="WIyWlLk6GJQsqaUBKTNV-1" source="LgFOgcLopF_vBFVp37Ev-19" target="LgFOgcLopF_vBFVp37Ev-6">
          <mxGeometry relative="1" as="geometry" />
        </mxCell>
        <mxCell id="LgFOgcLopF_vBFVp37Ev-19" value="Hexadecimal Conversion" style="rounded=0;whiteSpace=wrap;html=1;" vertex="1" parent="WIyWlLk6GJQsqaUBKTNV-1">
          <mxGeometry x="430" y="200" width="140" height="60" as="geometry" />
        </mxCell>
      </root>
    </mxGraphModel>
  </diagram>
</mxfile>
